# Blender v3.2.1 OBJ File: 'umwelt_modell.blend'
# www.blender.org
o Grass_2.002_Cube.017
v -0.087645 0.018677 -0.025254
v -0.084535 0.268587 -0.029871
v -0.159219 0.018677 -0.068337
v -0.156108 0.268587 -0.072954
v 0.003588 0.014560 -0.157075
v 0.003588 0.267312 -0.157075
v -0.067986 0.014560 -0.200158
v -0.067986 0.267312 -0.200158
v -0.170123 0.980540 -0.181006
v -0.206282 0.980540 -0.202772
v -0.157168 0.980540 -0.284363
v -0.121009 0.980540 -0.262597
v -0.286277 1.145948 -0.395687
v 0.028875 1.118289 -0.206463
v 0.020806 1.118827 -0.163576
v 0.068082 1.119299 -0.122311
v 0.086371 1.119024 -0.143261
v 0.160507 0.044506 -0.109906
v -0.021709 0.298682 -0.178211
v -0.036441 0.043914 -0.170931
v 0.018706 0.295822 -0.236990
v 0.018497 0.043089 -0.233861
v 0.098582 0.297879 -0.065549
v 0.055416 1.480675 -0.242174
v 0.105569 0.045331 -0.046975
v 0.139898 0.297259 -0.112877
v -0.046139 1.314215 0.088635
v 0.017283 1.062952 0.191150
v 0.033734 1.062799 0.230674
v 0.122915 1.063730 0.193556
v 0.100677 0.514496 0.058541
v 0.169537 0.029255 0.102023
v 0.068355 0.514796 -0.019112
v 0.106464 1.063884 0.154032
v -0.074537 0.512666 0.131465
v -0.025521 0.008196 0.156717
v -0.106859 0.512967 0.053812
v 0.137215 0.029556 0.024370
v -0.057843 0.008497 0.079064
v -0.018589 0.000042 0.066381
v -0.018589 0.252795 0.066381
v -0.018589 0.000042 -0.017160
v -0.018589 0.252795 -0.017160
v 0.169915 0.000042 0.066381
v 0.169915 0.252795 0.066381
v 0.169915 0.000042 -0.017160
v 0.169915 0.252795 -0.017160
v 0.089150 1.089468 0.017970
v 0.089150 1.089468 -0.024551
v 0.185095 1.089468 -0.024551
v 0.185095 1.089468 0.017970
v 0.252763 1.252466 -0.122880
v -0.256982 0.600198 -0.054159
v -0.217314 0.601384 -0.107094
v -0.293289 0.581202 -0.142709
v -0.322141 0.582378 -0.107949
v -0.157031 -0.011699 0.007216
v -0.008760 0.257545 0.012227
v 0.025807 0.006758 0.015576
v -0.053455 0.264526 0.071154
v -0.024427 0.006459 0.088284
v -0.124024 0.240325 -0.067479
v -0.430988 0.667799 -0.206286
v -0.106797 -0.011400 -0.065492
v -0.161803 0.240099 -0.012798
v 0.240254 0.635076 0.107466
v 0.174555 0.640438 0.113121
v 0.197597 0.622253 0.194277
v 0.242725 0.620657 0.192570
v 0.182582 0.021207 0.017940
v 0.103460 0.290626 -0.107182
v 0.067902 0.040560 -0.124588
v 0.177450 0.292930 -0.113427
v 0.155384 0.034555 -0.135578
v 0.120155 0.278261 0.032474
v 0.247438 0.712066 0.335528
v 0.095099 0.027212 0.028930
v 0.185948 0.273745 0.024209
vt 0.375000 0.000000
vt 0.625000 0.250000
vt 0.375000 0.250000
vt 0.375000 0.500000
vt 0.625000 0.500000
vt 0.375000 0.750000
vt 0.625000 1.000000
vt 0.375000 1.000000
vt 0.125000 0.750000
vt 0.125000 0.500000
vt 0.625000 0.500000
vt 0.625000 0.750000
vt 0.625000 0.750000
vt 0.625000 0.750000
vt 0.625000 0.000000
vt 0.625000 0.250000
vt 0.625000 1.000000
vt 0.625000 0.250000
vt 0.625000 1.000000
vt 0.625000 0.500000
vt 0.625000 0.000000
vt 0.375000 0.250000
vt 0.375000 0.000000
vt 0.625000 0.250000
vt 0.375000 0.500000
vt 0.625000 0.500000
vt 0.375000 0.750000
vt 0.625000 0.750000
vt 0.375000 1.000000
vt 0.125000 0.750000
vt 0.125000 0.500000
vt 0.625000 0.250000
vt 0.625000 0.500000
vt 0.625000 0.750000
vt 0.625000 0.750000
vt 0.625000 1.000000
vt 0.625000 1.000000
vt 0.625000 0.000000
vt 0.625000 0.250000
vt 0.625000 1.000000
vt 0.625000 0.500000
vt 0.625000 0.250000
vt 0.625000 0.500000
vt 0.625000 0.500000
vt 0.125000 0.500000
vt 0.375000 0.750000
vt 0.125000 0.750000
vt 0.625000 0.750000
vt 0.375000 1.000000
vt 0.625000 0.250000
vt 0.625000 0.000000
vt 0.625000 0.250000
vt 0.625000 1.000000
vt 0.625000 0.750000
vt 0.625000 1.000000
vt 0.625000 0.000000
vt 0.375000 0.500000
vt 0.375000 0.250000
vt 0.375000 0.000000
vt 0.625000 0.750000
vt 0.625000 1.000000
vt 0.625000 0.500000
vt 0.625000 0.000000
vt 0.625000 0.500000
vt 0.625000 0.250000
vt 0.625000 0.500000
vt 0.125000 0.500000
vt 0.375000 0.750000
vt 0.125000 0.750000
vt 0.625000 1.000000
vt 0.375000 1.000000
vt 0.625000 0.000000
vt 0.625000 0.250000
vt 0.625000 0.750000
vt 0.625000 1.000000
vt 0.625000 0.250000
vt 0.375000 0.500000
vt 0.375000 0.250000
vt 0.625000 0.000000
vt 0.375000 0.000000
vt 0.625000 0.750000
vt 0.625000 0.750000
vt 0.625000 1.000000
vt 0.625000 0.500000
vt 0.625000 0.250000
vt 0.625000 0.500000
vt 0.625000 0.500000
vt 0.125000 0.500000
vt 0.375000 0.750000
vt 0.125000 0.750000
vt 0.625000 0.750000
vt 0.375000 1.000000
vt 0.625000 0.250000
vt 0.625000 0.000000
vt 0.625000 0.250000
vt 0.625000 1.000000
vt 0.625000 0.750000
vt 0.625000 1.000000
vt 0.625000 0.000000
vt 0.375000 0.500000
vt 0.375000 0.250000
vt 0.375000 0.000000
vt 0.625000 0.750000
vt 0.625000 1.000000
vt 0.625000 0.500000
vt 0.625000 1.000000
vt 0.625000 0.750000
vt 0.625000 1.000000
vt 0.625000 0.500000
vt 0.625000 0.750000
vt 0.625000 0.250000
vt 0.625000 0.500000
vt 0.625000 0.250000
vt 0.625000 0.000000
vt 0.625000 0.250000
vt 0.625000 0.500000
vt 0.625000 0.750000
vt 0.375000 0.000000
vt 0.375000 0.250000
vt 0.375000 0.500000
vt 0.125000 0.750000
vt 0.125000 0.500000
vt 0.625000 1.000000
vt 0.375000 0.750000
vt 0.375000 1.000000
vt 0.625000 0.000000
vn -0.5156 0.0222 0.8565
vn -0.8223 -0.0003 -0.5691
vn 0.5157 0.0000 -0.8568
vn 0.8223 0.0003 0.5691
vn -0.0133 -0.9997 0.0220
vn -0.8112 -0.1676 -0.5603
vn 0.5081 -0.1715 -0.8441
vn 0.5154 -0.0366 -0.8562
vn -0.5121 0.1190 0.8507
vn 0.8380 0.2078 0.5045
vn -0.4126 0.5999 0.6855
vn 0.5298 0.7859 0.3189
vn -0.6010 -0.7126 -0.3618
vn -1.0000 0.0000 -0.0000
vn -0.0000 0.0000 -1.0000
vn 1.0000 0.0000 0.0000
vn 0.0000 0.0000 1.0000
vn 0.0000 -1.0000 0.0000
vn 0.0000 -0.0088 -1.0000
vn 0.9236 -0.3834 -0.0000
vn 0.9998 -0.0181 0.0000
vn -0.9918 0.1277 -0.0000
vn 0.0000 0.0578 0.9983
vn -0.7058 0.7084 -0.0000
vn 0.0000 0.6538 0.7566
vn 0.0000 -0.5165 -0.8563
vn -0.9845 0.1193 0.1283
vn -0.0774 -0.9943 -0.0727
vn 0.9813 -0.0684 -0.1798
vn -0.0094 -0.8423 0.5389
vn 0.9892 -0.1367 -0.0519
vn 0.0822 -0.4393 0.8946
vn -0.1184 0.0857 -0.9893
vn -0.9749 0.1258 0.1837
vn 0.1228 -0.0263 0.9921
vn -0.0275 0.5458 -0.8375
vn 0.0496 0.9458 -0.3209
vn 0.9995 -0.0049 -0.0299
vn -0.9545 0.0765 0.2882
vn -0.8220 0.0000 -0.5695
vn 0.8220 0.0000 0.5695
vn -0.8467 -0.1526 -0.5097
vn 0.8025 0.2221 0.5537
vn -0.9542 0.0791 0.2886
vn 0.9979 -0.0117 -0.0632
vn 0.9883 -0.1303 -0.0792
vn 0.0185 -0.4390 0.8983
vn -0.0866 0.0924 -0.9919
vn -0.9872 0.0967 0.1266
vn -0.0874 0.5435 -0.8348
vn -0.6576 0.0206 0.7531
vn -0.0008 -0.9999 0.0124
vn 0.6567 0.0447 -0.7528
vn 0.7334 0.2370 0.6371
vn 0.7152 0.0208 -0.6986
vn 0.7518 0.0732 0.6553
vn -0.7529 0.0247 -0.6576
vn -0.6573 0.0372 0.7527
vn 0.7520 0.0690 0.6556
vn -0.8229 0.0312 -0.5673
vn -0.9812 0.0536 -0.1853
vn 0.7351 -0.1196 -0.6673
vn -0.6426 0.2208 0.7337
vn 0.5624 0.0548 -0.8251
vn 0.0974 -0.9932 0.0632
vn -0.5214 -0.0020 0.8533
vn -0.4023 -0.8633 -0.3047
vn -0.6225 -0.0751 0.7790
vn -0.7249 -0.4709 -0.5028
vn 0.8166 0.1201 0.5646
vn 0.5147 0.0595 -0.8553
vn -0.8211 -0.0607 -0.5675
vn 0.6468 0.5779 0.4976
vn 0.2139 0.9598 0.1818
vn -0.6447 0.0561 0.7624
vn 0.4229 0.0072 -0.9062
vn -0.6833 0.0251 0.7297
vn 0.7155 -0.0092 -0.6986
vn 0.7395 0.0158 -0.6729
vn -0.8241 -0.0063 -0.5664
vn -0.6821 0.0603 0.7287
vn -0.9812 0.0542 -0.1853
vn 0.4223 0.0097 -0.9064
vn -0.6188 0.0506 0.7839
vn -0.6015 -0.0676 0.7960
vn -0.6851 -0.4746 -0.5526
vn 0.7974 0.1288 0.5895
vn 0.5652 0.0322 -0.8243
vn 0.6847 0.5720 0.4516
vn -0.3435 -0.4278 -0.8361
vn -0.9173 0.1116 0.3822
vn 0.3755 -0.2356 0.8964
vn 0.8383 0.4203 -0.3473
vn 0.3184 0.5409 0.7785
vn -0.9206 -0.0762 0.3829
vn 0.9191 0.0962 -0.3822
vn 0.0952 -0.9945 -0.0435
vn -0.3689 0.3027 -0.8788
vn 0.9218 0.0569 -0.3835
vn -0.2557 -0.1222 -0.9590
vn -0.9210 -0.0703 0.3831
vn 0.2557 0.1222 0.9590
vn -0.3822 -0.0832 -0.9203
vn 0.3822 0.0832 0.9203
g Grass_2.002_Cube.017_Grass
s off
f 1/1/1 4/2/1 3/3/1
f 4/2/2 7/4/2 3/3/2
f 8/5/3 5/6/3 7/4/3
f 5/6/4 2/7/4 1/8/4
f 7/4/5 1/9/5 3/10/5
f 4/2/6 11/11/6 8/5/6
f 12/12/7 11/11/7 13/13/7
f 8/5/8 12/12/8 6/14/8
f 4/2/9 9/15/9 10/16/9
f 2/7/10 12/12/10 9/17/10
f 10/16/11 9/15/11 13/18/11
f 9/17/12 12/12/12 13/19/12
f 11/11/13 10/16/13 13/20/13
f 41/21/14 42/22/14 40/23/14
f 43/24/15 46/25/15 42/22/15
f 47/26/16 44/27/16 46/25/16
f 45/28/17 40/29/17 44/27/17
f 46/25/18 40/30/18 42/31/18
f 47/26/19 49/32/19 50/33/19
f 51/34/20 50/33/20 52/35/20
f 47/26/21 51/34/21 45/28/21
f 41/21/22 49/32/22 43/24/22
f 45/28/23 48/36/23 41/37/23
f 49/32/24 48/38/24 52/39/24
f 48/36/25 51/34/25 52/40/25
f 50/33/26 49/32/26 52/41/26
f 75/42/27 67/43/27 71/44/27
f 77/45/28 74/46/28 70/47/28
f 73/48/29 70/49/29 74/46/29
f 68/50/30 69/51/30 76/52/30
f 78/53/31 66/54/31 69/55/31
f 78/56/32 68/50/32 75/42/32
f 71/44/33 74/46/33 72/57/33
f 77/58/34 71/44/34 72/57/34
f 70/59/35 75/42/35 77/58/35
f 73/48/36 67/43/36 66/54/36
f 66/54/37 67/43/37 76/60/37
f 69/55/38 66/54/38 76/61/38
f 67/43/39 68/50/39 76/62/39
f 1/1/1 2/63/1 4/2/1
f 4/2/40 8/5/40 7/4/40
f 8/5/3 6/14/3 5/6/3
f 5/6/41 6/14/41 2/7/41
f 7/4/5 5/6/5 1/9/5
f 4/2/42 10/16/42 11/11/42
f 8/5/8 11/11/8 12/12/8
f 4/2/9 2/63/9 9/15/9
f 2/7/43 6/14/43 12/12/43
f 41/21/14 43/24/14 42/22/14
f 43/24/15 47/26/15 46/25/15
f 47/26/16 45/28/16 44/27/16
f 45/28/17 41/37/17 40/29/17
f 46/25/18 44/27/18 40/30/18
f 47/26/19 43/24/19 49/32/19
f 47/26/21 50/33/21 51/34/21
f 41/21/22 48/38/22 49/32/22
f 45/28/23 51/34/23 48/36/23
f 75/42/44 68/50/44 67/43/44
f 77/45/28 72/57/28 74/46/28
f 73/48/45 78/53/45 70/49/45
f 78/53/46 73/48/46 66/54/46
f 78/56/47 69/51/47 68/50/47
f 71/44/48 73/48/48 74/46/48
f 77/58/49 75/42/49 71/44/49
f 70/59/35 78/56/35 75/42/35
f 73/48/50 71/44/50 67/43/50
g Grass_2.002_Cube.017_Grass_2
f 19/64/51 16/65/51 15/66/51
f 25/67/52 22/68/52 18/69/52
f 22/68/53 26/70/53 18/71/53
f 16/65/54 17/72/54 24/73/54
f 21/74/55 17/75/55 26/70/55
f 23/76/56 17/72/56 16/65/56
f 19/64/57 22/68/57 20/77/57
f 23/76/58 20/77/58 25/78/58
f 26/79/59 25/78/59 18/80/59
f 19/64/60 14/81/60 21/74/60
f 14/81/61 15/66/61 24/82/61
f 17/75/62 14/81/62 24/83/62
f 15/66/63 16/65/63 24/84/63
f 62/85/64 54/86/64 58/87/64
f 64/88/65 61/89/65 57/90/65
f 60/91/66 57/92/66 61/89/66
f 55/93/67 56/94/67 63/95/67
f 65/96/68 53/97/68 56/98/68
f 65/99/69 55/93/69 62/85/69
f 58/87/70 61/89/70 59/100/70
f 64/101/71 58/87/71 59/100/71
f 57/102/72 62/85/72 64/101/72
f 60/91/73 54/86/73 53/97/73
f 53/97/74 54/86/74 63/103/74
f 56/98/75 53/97/75 63/104/75
f 54/86/76 55/93/76 63/105/76
f 19/64/77 23/76/77 16/65/77
f 25/67/52 20/77/52 22/68/52
f 22/68/78 21/74/78 26/70/78
f 21/74/79 14/81/79 17/75/79
f 23/76/56 26/79/56 17/72/56
f 19/64/80 21/74/80 22/68/80
f 23/76/81 19/64/81 20/77/81
f 26/79/59 23/76/59 25/78/59
f 19/64/82 15/66/82 14/81/82
f 62/85/83 55/93/83 54/86/83
f 64/88/65 59/100/65 61/89/65
f 60/91/84 65/96/84 57/92/84
f 65/96/85 60/91/85 53/97/85
f 65/99/86 56/94/86 55/93/86
f 58/87/87 60/91/87 61/89/87
f 64/101/88 62/85/88 58/87/88
f 57/102/72 65/99/72 62/85/72
f 60/91/89 58/87/89 54/86/89
g Grass_2.002_Cube.017_Grass.001
f 34/106/90 28/107/90 27/108/90
f 35/109/91 28/107/91 37/110/91
f 31/111/92 29/112/92 35/109/92
f 30/113/93 34/114/93 27/115/93
f 29/112/94 30/113/94 27/116/94
f 28/107/95 29/112/95 27/117/95
f 38/118/96 31/111/96 32/119/96
f 36/120/97 38/121/97 32/122/97
f 33/123/98 28/107/98 34/106/98
f 31/111/99 34/114/99 30/113/99
f 39/124/100 33/123/100 38/125/100
f 35/109/101 39/124/101 36/120/101
f 31/111/102 36/120/102 32/119/102
f 35/109/91 29/112/91 28/107/91
f 31/111/92 30/113/92 29/112/92
f 38/118/96 33/126/96 31/111/96
f 36/120/97 39/124/97 38/121/97
f 33/123/98 37/110/98 28/107/98
f 31/111/99 33/126/99 34/114/99
f 39/124/103 37/110/103 33/123/103
f 35/109/101 37/110/101 39/124/101
f 31/111/104 35/109/104 36/120/104
